<svg version="1.1" xmlns="http://www.w3.org/2000/svg" xmlns:xlink="http://www.w3.org/1999/xlink" x="0px" y="0px"
	 viewBox="0 0 373.8 373.8" style="enable-background:new 0 0 373.8 373.8;" xml:space="preserve">
<style type="text/css">
	.st0{fill:#ffffff;}
</style>
<g>
	<g>
		<path class="st0" d="M339.6,5.9L186.9,158.6L34.1,5.9C26.3-2,13.7-2,5.9,5.9C-2,13.7-2,26.3,5.9,34.1l152.7,152.7L5.9,339.6
			c-7.8,7.8-7.8,20.5,0,28.3c7.8,7.8,20.5,7.8,28.3,0l152.7-152.7l152.7,152.7c7.8,7.8,20.5,7.8,28.3,0c7.8-7.8,7.8-20.5,0-28.3
			L215.2,186.9L367.9,34.1c7.8-7.8,7.8-20.5,0-28.3C360.1-2,347.4-2,339.6,5.9z"/>
	</g>
</g>
</svg>
