<svg width="18" height="19" viewBox="0 0 18 19" fill="none" xmlns="http://www.w3.org/2000/svg">
	<path d="M16.8218 16.9886L12.3332 12.3205C13.4781 11.1723 14.1874 9.58942 14.1874 7.84369C14.1874 4.3456 11.3418 1.5 7.84369 1.5C4.3456 1.5 1.5 4.3456 1.5 7.84369C1.5 11.3418 4.3456 14.1874 7.84369 14.1874C9.37917 14.1874 10.7884 13.6385 11.8867 12.7277L16.3862 17.4073C16.4454 17.4692 16.5246 17.5 16.604 17.5C16.6795 17.5 16.7548 17.4719 16.8134 17.4157C16.9336 17.3 16.9372 17.1088 16.8218 16.9886ZM7.84369 13.5832C4.67879 13.5832 2.10416 11.0086 2.10416 7.84369C2.10416 4.67879 4.67879 2.10416 7.84369 2.10416C11.0086 2.10416 13.5832 4.67879 13.5832 7.84369C13.5832 11.0086 11.0083 13.5832 7.84369 13.5832Z" fill="#f0b86c"></path>
	<path fill-rule="evenodd" clip-rule="evenodd" d="M1 7.84369C1 4.06946 4.06946 1 7.84369 1C11.6179 1 14.6874 4.06946 14.6874 7.84369C14.6874 9.55151 14.0579 11.1149 13.0209 12.3143L17.1822 16.642C17.4885 16.9611 17.4793 17.4688 17.1601 17.776C17.0052 17.9244 16.8041 18 16.604 18C16.3953 18 16.1835 17.9185 16.0252 17.7532L11.8374 13.3978C10.7133 14.2082 9.33334 14.6874 7.84369 14.6874C4.06946 14.6874 1 11.6179 1 7.84369ZM7.84369 2.60416C4.95494 2.60416 2.60416 4.95494 2.60416 7.84369C2.60416 10.7324 4.95494 13.0832 7.84369 13.0832C10.7322 13.0832 13.0832 10.7324 13.0832 7.84369C13.0832 4.95494 10.7324 2.60416 7.84369 2.60416Z" fill="#f0b86c"></path>
	<path d="M16.8218 16.9886L12.3332 12.3205C13.4781 11.1723 14.1874 9.58942 14.1874 7.84369C14.1874 4.3456 11.3418 1.5 7.84369 1.5C4.3456 1.5 1.5 4.3456 1.5 7.84369C1.5 11.3418 4.3456 14.1874 7.84369 14.1874C9.37917 14.1874 10.7884 13.6385 11.8867 12.7277L16.3862 17.4073C16.4454 17.4692 16.5246 17.5 16.604 17.5C16.6795 17.5 16.7548 17.4719 16.8134 17.4157C16.9336 17.3 16.9372 17.1088 16.8218 16.9886ZM7.84369 13.5832C4.67879 13.5832 2.10416 11.0086 2.10416 7.84369C2.10416 4.67879 4.67879 2.10416 7.84369 2.10416C11.0086 2.10416 13.5832 4.67879 13.5832 7.84369C13.5832 11.0086 11.0083 13.5832 7.84369 13.5832Z" stroke="#f0b86c"></path>
	<path fill-rule="evenodd" clip-rule="evenodd" d="M1 7.84369C1 4.06946 4.06946 1 7.84369 1C11.6179 1 14.6874 4.06946 14.6874 7.84369C14.6874 9.55151 14.0579 11.1149 13.0209 12.3143L17.1822 16.642C17.4885 16.9611 17.4793 17.4688 17.1601 17.776C17.0052 17.9244 16.8041 18 16.604 18C16.3953 18 16.1835 17.9185 16.0252 17.7532L11.8374 13.3978C10.7133 14.2082 9.33334 14.6874 7.84369 14.6874C4.06946 14.6874 1 11.6179 1 7.84369ZM7.84369 2.60416C4.95494 2.60416 2.60416 4.95494 2.60416 7.84369C2.60416 10.7324 4.95494 13.0832 7.84369 13.0832C10.7322 13.0832 13.0832 10.7324 13.0832 7.84369C13.0832 4.95494 10.7324 2.60416 7.84369 2.60416Z" stroke="#f0b86c"></path>
</svg>